<svg xmlns="http://www.w3.org/2000/svg" xmlns:xlink="http://www.w3.org/1999/xlink" viewBox="0 0 18.2 18.2"><defs><style>.cls-1{fill:none;}.cls-2{clip-path:url(#clip-path);}</style><clipPath id="clip-path" transform="translate(0.1 0.1)"><rect class="cls-1" width="18" height="18"/></clipPath></defs><g id="Layer_2" data-name="Layer 2"><g id="레이어_1" data-name="레이어 1"><g id="그룹_33" data-name="그룹 33"><g class="cls-2"><g id="그룹_32" data-name="그룹 32"><path id="패스_18" data-name="패스 18" d="M15-.1H3A3.12,3.12,0,0,0-.1,3h0V15A3.12,3.12,0,0,0,3,18.1H15A3.12,3.12,0,0,0,18.1,15h0V3A3.12,3.12,0,0,0,15-.1ZM6.16,7.42h0a2.12,2.12,0,0,1,.12-.2.61.61,0,0,1,.07-.1L6.44,7a.61.61,0,0,0,.07-.1,1.29,1.29,0,0,1,.16-.17l.09-.08a.65.65,0,0,1,.12-.11L7,6.47a1.49,1.49,0,0,1,.2-.15l.08-.05.16-.1.08,0L7.72,6l.06,0L8,5.91l.08,0a1.19,1.19,0,0,1,.27-.07h0l.26,0h.75l.26,0h0a1.34,1.34,0,0,1,.27.07l.08,0,.21.08.06,0,.24.11.08,0,.16.1.08.05.2.15.08.07.12.11a.59.59,0,0,1,.08.08,1.29,1.29,0,0,1,.16.17l.08.1.09.12.07.1a3.25,3.25,0,1,1-5.56.2Zm10,6.59a2.29,2.29,0,0,1-2.29,2.29H4.14A2.28,2.28,0,0,1,1.85,14h0V7.42h2.2a5.2,5.2,0,1,0,9.91,0h2.2Zm0-10.47a.26.26,0,0,1-.26.26H14.46a.26.26,0,0,1-.26-.26h0V2.11a.26.26,0,0,1,.26-.26h1.43a.26.26,0,0,1,.26.26h0Z" transform="translate(0.1 0.1)"/></g></g></g></g></g></svg>