<svg xmlns="http://www.w3.org/2000/svg" xmlns:xlink="http://www.w3.org/1999/xlink" viewBox="0 0 18 17.06"><defs><style>.cls-1{fill:none;}.cls-2{clip-path:url(#clip-path);}.cls-3{fill-rule:evenodd;}</style><clipPath id="clip-path" transform="translate(-0.01 -0.01)"><rect class="cls-1" width="18" height="17.07"/></clipPath></defs><g id="Layer_2" data-name="Layer 2"><g id="레이어_1" data-name="레이어 1"><g id="그룹_27" data-name="그룹 27"><g class="cls-2"><g id="그룹_26" data-name="그룹 26"><path id="패스_14" data-name="패스 14" class="cls-3" d="M4.14,13.56a20.5,20.5,0,0,1-2.7-2.4c-2.3-3-1.8-6.51,1.3-9.11,3.3-2.8,9.61-2.7,12.82.2,3.71,3.3,3.1,8.41-1.2,10.91a11,11,0,0,1-6.21,1.4,3.94,3.94,0,0,0-1.5.4c-1.1.6-2,1.4-3.11,2.1-.1-.1-.2-.1-.3-.2a19,19,0,0,0,.9-3.3" transform="translate(-0.01 -0.01)"/></g></g></g></g></g></svg>